<?xml version="1.0" standalone="no"?>
<!DOCTYPE svg PUBLIC "-//W3C//DTD SVG 20010904//EN"
 "http://www.w3.org/TR/2001/REC-SVG-20010904/DTD/svg10.dtd">
<svg version="1.0" xmlns="http://www.w3.org/2000/svg"
 width="700.000000pt" height="700.000000pt" viewBox="0 0 700.000000 700.000000"
 preserveAspectRatio="xMidYMid meet">
<metadata>
Created by potrace 1.11, written by Peter Selinger 2001-2013
</metadata>
<g transform="translate(0.000000,700.000000) scale(0.100000,-0.100000)"
fill="#000000" stroke="none">
<path d="M3170 6483 c-908 -63 -1627 -285 -2105 -652 -84 -64 -219 -195 -272
-264 -129 -167 -214 -410 -244 -696 -15 -142 -6 -480 16 -641 102 -745 416
-1555 872 -2250 530 -806 1155 -1321 1767 -1452 146 -31 398 -31 546 0 446 95
864 351 1295 793 612 629 1102 1520 1319 2401 81 327 111 588 103 900 -5 251
-27 391 -86 568 -73 217 -162 363 -315 515 -430 427 -1226 709 -2186 775 -131
9 -598 11 -710 3z m-1021 -918 c186 -44 347 -203 395 -391 74 -286 -104 -584
-390 -658 -298 -77 -612 126 -665 428 -66 385 280 710 660 621z m3145 -345
c170 -43 323 -164 356 -281 8 -28 -2 -59 -92 -268 -55 -130 -107 -250 -114
-268 l-14 -32 -47 51 c-122 130 -329 223 -525 236 l-97 7 75 175 c159 372 151
356 192 373 20 9 44 18 52 21 36 11 143 4 214 -14z m-338 -681 c149 -38 344
-149 407 -232 l25 -33 -439 -1025 c-241 -563 -445 -1039 -454 -1057 l-15 -33
-33 43 c-110 144 -443 284 -596 249 -23 -5 -41 -6 -39 -1 2 4 205 481 453
1059 l449 1051 81 0 c49 0 112 -8 161 -21z m-1715 -1723 l554 -1295 7 226 c5
169 10 228 20 235 27 18 141 4 201 -26 56 -27 117 -91 117 -121 0 -7 -76 -85
-169 -174 l-169 -161 -397 2 -396 3 -535 1245 c-294 685 -545 1271 -559 1303
l-24 57 398 0 398 0 554 -1294z"/>
</g>
</svg>
